<svg xmlns="http://www.w3.org/2000/svg" version="1.1" xmlns:xlink="http://www.w3.org/1999/xlink" width="512" height="512" x="0" y="0" viewBox="0 0 512 512" style="enable-background:new 0 0 512 512" xml:space="preserve" class=""><g><path d="M357.12 254.94c-.06-37.56-2.32-65.1-4.88-85.25-4.53-33.77-32.13-61.32-64.17-64.66-16.02-1.71-52.43-2.89-85.04-2.75zM471.77 435.72 184.81 151.8l-47.82-47.38h-.06L73.99 42.15c-9.42-9.32-24.62-9.24-33.94.18s-9.24 24.62.18 33.94l34.14 33.78c-31.2 5.96-60.21 32.59-66.69 63.72C3.81 193.2.06 219.73 0 256c.06 36.27 3.81 62.8 7.68 82.22 6.7 32.16 37.43 59.52 69.79 64.25 19.63 2.84 69.22 6.28 105.48 6.97 36.26.9 85.7-.4 105.13-2.47 21.31-2.23 40.64-15.16 52.54-33.5l97.4 96.37c4.68 4.63 10.78 6.94 16.88 6.94s12.37-2.38 17.06-7.12c9.32-9.42 9.24-24.62-.18-33.94zM390.6 288.1l89.2 88.37c12.16-5.65 22.01-19.76 25.61-39.26 3.19-18.46 6.44-44.06 6.59-79.31.04-35.25-3.09-60.84-6.18-79.29-5.44-30.25-26.03-47.39-47.06-39.94-12.79 4.74-30.33 12.42-55.06 24.85-6.75 3.4-13.04 6.61-18.91 9.66-.1.01 6.75 35.67 6.71 84.94a541.09 541.09 0 0 1-.9 29.98z" fill="#000000" opacity="1" data-original="#000000" class=""></path></g></svg>