<svg xmlns="http://www.w3.org/2000/svg" version="1.1" xmlns:xlink="http://www.w3.org/1999/xlink" width="512" height="512" x="0" y="0" viewBox="0 0 512 512" style="enable-background:new 0 0 512 512" xml:space="preserve" class=""><g><path d="M384.42 343.79c5.88 3 12.17 6.16 18.93 9.51 24.65 12.19 42.11 19.7 54.86 24.28 21 7.22 41.61-10.1 47.2-40.37 3.18-18.46 6.44-44.06 6.59-79.31s-3.09-60.84-6.18-79.28c-5.44-30.25-26-47.39-47.06-39.94-12.8 4.74-30.33 12.41-55.07 24.85q-10.12 5.1-18.91 9.66c-.09 0 6.75 35.67 6.72 84.94a518.88 518.88 0 0 1-7.08 85.66zM352.24 169.69c-4.53-33.77-32.13-61.31-64.17-64.66-19.43-2.03-68.87-3.37-105.07-2.47-36.26.69-85.85 4.13-105.48 7-32.36 4.73-63.09 32.09-69.79 64.25C3.81 193.2.06 219.73 0 256s3.81 62.8 7.68 82.22c6.7 32.16 37.43 59.52 69.79 64.25 19.63 2.84 69.22 6.28 105.48 7 36.25.9 85.69-.4 105.12-2.47 32-3.35 59.63-30.89 64.17-64.66 2.58-20.34 4.86-48.2 4.88-86.31s-2.3-66.03-4.88-86.34z" fill="#FFFFFF" opacity="1" data-original="#000000"></path></g></svg>