<svg xmlns="http://www.w3.org/2000/svg" version="1.1" xmlns:xlink="http://www.w3.org/1999/xlink" width="512" height="512" x="0" y="0" viewBox="0 0 24 24" style="enable-background:new 0 0 512 512" xml:space="preserve" class=""><g><g fill="#000" fill-rule="evenodd" clip-rule="evenodd"><path d="M14.94 12.413a1 1 0 0 1 1-1h.008a1 1 0 1 1 0 2h-.009a1 1 0 0 1-1-1zM10.93 12.413a1 1 0 0 1 1-1h.01a1 1 0 1 1 0 2h-.01a1 1 0 0 1-1-1zM6.921 12.413a1 1 0 0 1 1-1h.01a1 1 0 1 1 0 2h-.01a1 1 0 0 1-1-1z" fill="#000000" opacity="1" data-original="#000000" class=""></path><path d="M18.54 5.457c-3.608-3.61-9.471-3.61-13.08 0-2.825 2.826-3.44 7.014-1.853 10.441a.73.73 0 0 1 .015.035c.092.23.09.489.086.636a7.283 7.283 0 0 1-.05.612c-.025.204-.055.43-.085.658l-.007.048c-.033.248-.067.502-.097.757-.06.516-.097.999-.08 1.385.008.192.029.335.056.433.009.033.017.055.023.07a.58.58 0 0 0 .07.023c.098.027.24.048.433.056.386.017.869-.02 1.385-.08.255-.03.51-.064.757-.097l.048-.006c.228-.031.453-.061.658-.085.216-.025.428-.046.612-.05.147-.005.406-.007.635.085l.035.015c3.428 1.586 7.615.973 10.44-1.853 3.608-3.61 3.616-9.467 0-13.083zm1.061-1.06C15.407.2 8.594.2 4.4 4.397 1.136 7.66.414 12.485 2.209 16.447v.08a5.886 5.886 0 0 1-.042.48c-.022.191-.05.404-.082.637l-.006.043c-.033.247-.068.514-.1.784-.061.532-.111 1.112-.089 1.623.011.256.041.52.108.765.066.24.183.516.405.738.222.222.5.339.738.405.245.067.51.097.765.108.51.022 1.09-.028 1.623-.09.27-.03.536-.066.784-.1l.043-.005c.233-.031.445-.06.636-.082.205-.024.364-.038.481-.041h.079c3.963 1.793 8.786 1.073 12.05-2.192 4.193-4.194 4.202-11.001 0-15.203z" fill="#000000" opacity="1" data-original="#000000" class=""></path></g></g></svg>