<svg xmlns="http://www.w3.org/2000/svg" version="1.1" xmlns:xlink="http://www.w3.org/1999/xlink" width="512" height="512" x="0" y="0" viewBox="0 0 32 32" style="enable-background:new 0 0 512 512" xml:space="preserve" class=""><g><path d="M16 1a15 15 0 1 0 15 15A15.017 15.017 0 0 0 16 1zm4 9a2 2 0 1 1-2 2 2 2 0 0 1 2-2zm-8 0a2 2 0 1 1-2 2 2 2 0 0 1 2-2zm11.8 10.5a9 9 0 0 1-15.59 0 1 1 0 1 1 1.731-1 7 7 0 0 0 12.128 0 1 1 0 1 1 1.731 1z" fill="#999ba0" opacity="1" data-original="#000000" class=""></path></g></svg>