<svg xmlns="http://www.w3.org/2000/svg" version="1.1" xmlns:xlink="http://www.w3.org/1999/xlink" width="512" height="512" x="0" y="0" viewBox="0 0 24 24" style="enable-background:new 0 0 512 512" xml:space="preserve" class=""><g><g fill="#000" fill-rule="evenodd" clip-rule="evenodd"><path d="M8.329 16.135a.75.75 0 0 1 .75-.75h5.815a.75.75 0 0 1 0 1.5H9.079a.75.75 0 0 1-.75-.75z" fill="#000000" opacity="1" data-original="#000000" class=""></path><path d="M6.81 5.978a58.921 58.921 0 0 1-1.249 1.12c-.279.246-.522.46-.74.662-.505.466-.824.818-1.05 1.212-.453.79-.621 1.897-.621 4.741 0 2.056.123 3.532.401 4.602.273 1.05.68 1.653 1.22 2.04.562.404 1.366.645 2.576.77 1.21.124 2.718.125 4.639.125s3.43 0 4.639-.126c1.21-.124 2.014-.365 2.577-.77.539-.386.946-.988 1.219-2.039.278-1.07.401-2.546.401-4.602 0-2.844-.168-3.951-.62-4.741-.226-.394-.545-.746-1.05-1.212-.219-.202-.462-.416-.74-.662l-.137-.12c-.329-.29-.7-.618-1.112-1-.244-.198-.497-.411-.76-.632-.57-.482-1.185-1-1.849-1.469-.984-.696-1.876-1.127-2.596-1.127-.717 0-1.597.431-2.569 1.128-.634.455-1.214.949-1.76 1.413-.281.24-.554.472-.82.687zm1.705-3.319c1-.717 2.217-1.409 3.443-1.409 1.222 0 2.45.686 3.462 1.402.716.506 1.424 1.102 2.017 1.602.253.213.485.409.687.572A57.056 57.056 0 0 0 19.4 5.97c.279.245.537.472.77.686.539.498.992.975 1.333 1.57.68 1.187.819 2.7.819 5.486 0 2.087-.122 3.719-.45 4.98-.332 1.28-.891 2.231-1.795 2.88-.88.632-1.997.91-3.299 1.044-1.294.133-2.879.133-4.755.133h-.074c-1.876 0-3.46 0-4.755-.133-1.302-.135-2.418-.412-3.298-1.044-.904-.649-1.464-1.6-1.797-2.88-.327-1.261-.449-2.893-.449-4.98 0-2.787.139-4.299.82-5.487.34-.595.794-1.07 1.334-1.569.232-.214.49-.441.767-.685l.135-.119a57.047 57.047 0 0 0 1.143-1.027c.212-.171.46-.381.731-.612.574-.488 1.255-1.067 1.935-1.555z" fill="#000000" opacity="1" data-original="#000000" class=""></path></g></g></svg>