<svg xmlns="http://www.w3.org/2000/svg" version="1.1" xmlns:xlink="http://www.w3.org/1999/xlink" width="512" height="512" x="0" y="0" viewBox="0 0 100 100" style="enable-background:new 0 0 512 512" xml:space="preserve" class=""><g><g fill="#91459a"><path d="M17.718 22.304h-9.58a3.163 3.163 0 0 1-3.164-3.164V9.56a3.163 3.163 0 0 1 3.163-3.163h9.58a3.163 3.163 0 0 1 3.164 3.163v9.58a3.163 3.163 0 0 1-3.163 3.164z" fill="#858484" opacity="1" data-original="#91459a" class=""></path><path d="M17.718 24.778H8.137A5.644 5.644 0 0 1 2.5 19.14V9.56a5.643 5.643 0 0 1 5.637-5.637h9.58a5.643 5.643 0 0 1 5.638 5.636v9.581a5.644 5.644 0 0 1-5.637 5.638zM8.137 8.87a.69.69 0 0 0-.69.69v9.58c0 .38.31.69.69.69h9.58a.69.69 0 0 0 .69-.69V9.56a.69.69 0 0 0-.69-.69zM94.036 17.813h-57.5a3.464 3.464 0 0 1 0-6.927h57.5a3.464 3.464 0 0 1 0 6.927zM17.718 57.954h-9.58a3.163 3.163 0 0 1-3.164-3.164v-9.58a3.163 3.163 0 0 1 3.163-3.164h9.58a3.163 3.163 0 0 1 3.164 3.164v9.58a3.163 3.163 0 0 1-3.163 3.164z" fill="#858484" opacity="1" data-original="#91459a" class=""></path><path d="M17.718 60.427H8.137A5.643 5.643 0 0 1 2.5 54.79v-9.58a5.643 5.643 0 0 1 5.637-5.637h9.58a5.643 5.643 0 0 1 5.638 5.637v9.58a5.643 5.643 0 0 1-5.637 5.637zM8.137 44.521a.69.69 0 0 0-.69.689v9.58c0 .38.31.69.69.69h9.58a.69.69 0 0 0 .69-.69v-9.58a.69.69 0 0 0-.69-.69zM94.036 53.464h-57.5a3.464 3.464 0 0 1 0-6.928h57.5a3.464 3.464 0 0 1 0 6.928zM17.718 93.603h-9.58a3.163 3.163 0 0 1-3.164-3.163v-9.58a3.163 3.163 0 0 1 3.163-3.164h9.58a3.163 3.163 0 0 1 3.164 3.164v9.58a3.163 3.163 0 0 1-3.163 3.163z" fill="#858484" opacity="1" data-original="#91459a" class=""></path><path d="M17.718 96.077H8.137A5.643 5.643 0 0 1 2.5 90.441V80.86a5.644 5.644 0 0 1 5.637-5.638h9.58a5.644 5.644 0 0 1 5.638 5.638v9.58a5.643 5.643 0 0 1-5.637 5.637zM8.137 80.17a.69.69 0 0 0-.69.69v9.58c0 .38.31.69.69.69h9.58a.69.69 0 0 0 .69-.69v-9.58a.69.69 0 0 0-.69-.69zM94.036 89.114h-57.5a3.464 3.464 0 0 1 0-6.927h57.5a3.464 3.464 0 0 1 0 6.927z" fill="#858484" opacity="1" data-original="#91459a" class=""></path></g></g></svg>