<svg xmlns="http://www.w3.org/2000/svg" version="1.1" xmlns:xlink="http://www.w3.org/1999/xlink" width="512" height="512" x="0" y="0" viewBox="0 0 32 32" style="enable-background:new 0 0 512 512" xml:space="preserve" fill-rule="evenodd" class=""><g><path d="m4.293 5.707 22.119 22.119a.999.999 0 1 0 1.414-1.414L5.707 4.293a1 1 0 0 0-1.414 1.414zM15.001 25.951 15 26v2h-5a1 1 0 0 0 0 2h12a1 1 0 0 0 0-2h-5v-2l-.001-.049a9.964 9.964 0 0 0 2.194-.473 1 1 0 1 0-.639-1.895A8.004 8.004 0 0 1 8 16a1 1 0 0 0-2 0c0 5.182 3.95 9.449 9.001 9.951zM24 16c0 .893-.146 1.752-.417 2.554a1 1 0 0 0 1.895.639A9.973 9.973 0 0 0 26 16a1 1 0 0 0-2 0z" fill="#000000" opacity="1" data-original="#000000"></path><path d="M16.284 21.091c-.041-.547-5.299-5.399-5.375-5.375a1.544 1.544 0 0 0-.453.234c-.28.214-.449.525-.396.897a6.008 6.008 0 0 0 5.093 5.093c.547.078 1.171-.299 1.131-.849zM22 15.343V8c0-3.311-2.689-6-6-6a6.003 6.003 0 0 0-5.409 3.402c-.288.598.467 1.334.467 1.334s9.39 9.607 9.942 9.607 1-.448 1-1z" fill="#000000" opacity="1" data-original="#000000"></path></g></svg>