<svg xmlns="http://www.w3.org/2000/svg" version="1.1" xmlns:xlink="http://www.w3.org/1999/xlink" width="512" height="512" x="0" y="0" viewBox="0 0 24 24" style="enable-background:new 0 0 512 512" xml:space="preserve" class=""><g><g fill="#000"><path d="M21.704 10.143a.75.75 0 0 1-.744-.666 7.184 7.184 0 0 0-6.38-6.37.75.75 0 0 1-.661-.829.741.741 0 0 1 .828-.662A8.673 8.673 0 0 1 22.45 9.31a.749.749 0 0 1-.746.834z" fill="#000000" opacity="1" data-original="#000000"></path><path d="M18.163 10.154a.75.75 0 0 1-.735-.606A3.66 3.66 0 0 0 14.52 6.64a.75.75 0 1 1 .286-1.472A5.153 5.153 0 0 1 18.9 9.26a.75.75 0 0 1-.737.894z" fill="#000000" opacity="1" data-original="#000000"></path><path fill-rule="evenodd" d="M7.482 16.44c4.713 4.714 7.851 5.95 9.833 5.95.978 0 1.676-.3 2.141-.635.021-.012 2.173-1.328 2.55-3.32.178-.935-.082-1.86-.75-2.676-2.752-3.34-4.154-3.029-5.702-2.276-.95.466-1.702.828-3.823-1.29C9.611 10.07 9.977 9.32 10.44 8.37c.754-1.548 1.064-2.95-2.278-5.705C7.348 2 6.43 1.74 5.495 1.915 3.532 2.282 2.208 4.4 2.21 4.4 1.158 5.876.444 9.403 7.482 16.44zM5.802 3.383c.087-.014.174-.022.26-.022.392 0 .77.153 1.147.463 2.695 2.22 2.354 2.92 1.882 3.89-.709 1.456-1.08 2.878 1.58 5.54 2.661 2.66 4.084 2.29 5.54 1.578l.002-.001c.967-.47 1.667-.81 3.884 1.881.38.462.524.924.442 1.411-.189 1.12-1.49 2.123-1.885 2.367-1.41 1.006-4.808.193-10.112-5.11-5.302-5.303-6.116-8.7-5.074-10.165.208-.339 1.215-1.643 2.333-1.832z" clip-rule="evenodd" fill="#000000" opacity="1" data-original="#000000"></path></g></g></svg>