<svg xmlns="http://www.w3.org/2000/svg" version="1.1" xmlns:xlink="http://www.w3.org/1999/xlink" width="512" height="512" x="0" y="0" viewBox="0 0 24 24" style="enable-background:new 0 0 512 512" xml:space="preserve" class=""><g><g data-name="Layer 2"><path fill="#cefdff" d="M19.087 1.465 3.262 6.438a2.75 2.75 0 0 0-.223 5.167l6.145 2.531a1.26 1.26 0 0 1 .68.679l2.536 6.147a2.719 2.719 0 0 0 2.537 1.7h.124a2.725 2.725 0 0 0 2.505-1.924l4.968-15.825a2.75 2.75 0 0 0-3.447-3.448z" opacity="1" data-original="#00bbff"></path><path d="M12.24 12.51a.751.751 0 0 1-.53-1.281l2.122-2.121a.75.75 0 0 1 1.06 1.061l-2.121 2.121a.748.748 0 0 1-.531.22z" fill="#000000" opacity="1" data-original="#000000"></path><path d="M14.932 22.664a2.72 2.72 0 0 1-2.537-1.7l-2.531-6.148a1.259 1.259 0 0 0-.68-.68l-6.145-2.531a2.749 2.749 0 0 1 .223-5.166l15.824-4.973a2.75 2.75 0 0 1 3.448 3.448l-4.973 15.825a2.725 2.725 0 0 1-2.505 1.923zM19.92 2.837a1.273 1.273 0 0 0-.383.059L3.711 7.87a1.25 1.25 0 0 0-.1 2.349l6.145 2.53a2.763 2.763 0 0 1 1.5 1.5l2.53 6.145a1.25 1.25 0 0 0 2.349-.1L21.1 4.463a1.253 1.253 0 0 0-1.18-1.626z" fill="#000000" opacity="1" data-original="#000000"></path></g></g></svg>