<svg xmlns="http://www.w3.org/2000/svg" version="1.1" xmlns:xlink="http://www.w3.org/1999/xlink" width="512" height="512" x="0" y="0" viewBox="0 0 24 24" style="enable-background:new 0 0 512 512" xml:space="preserve"><g><g fill="#000" fill-rule="evenodd" clip-rule="evenodd"><path d="M13.214 4.877c-3.672 1.011-7.495 2.369-9.16 3.33-.399.23-.486.384-.502.417a.554.554 0 0 0 .137.196c.186.196.512.427.982.674.46.243 1.015.479 1.615.702 1.202.447 2.54.824 3.586 1.09a49.962 49.962 0 0 0 1.646.39l.096.021.024.005.007.002a.75.75 0 0 1 .583.582l.001.007.005.024.02.096.082.366c.071.314.176.759.308 1.28.267 1.046.645 2.385 1.091 3.586.224.6.46 1.155.702 1.615.248.47.478.797.675.982.107.101.17.13.195.137.034-.015.187-.103.417-.501.961-1.666 2.32-5.489 3.33-9.16.502-1.824.91-3.577 1.136-4.969.113-.697.177-1.285.19-1.738.004-.18 0-.33-.01-.45-.12-.01-.27-.014-.45-.009-.452.012-1.04.076-1.738.19-1.391.226-3.144.633-4.968 1.135zm2.107 15.504s-.003.001-.01 0h.01zm-4.458-7.313-.042-.01a50.984 50.984 0 0 1-1.32-.318c-1.069-.273-2.465-.665-3.737-1.138a15.524 15.524 0 0 1-1.791-.78c-.527-.278-1.023-.6-1.375-.973-.351-.373-.663-.916-.508-1.565.143-.602.635-1.042 1.213-1.376 1.847-1.065 5.832-2.464 9.513-3.477 1.852-.51 3.662-.932 5.126-1.17.73-.118 1.392-.194 1.939-.209.273-.007.533.001.766.031.224.029.471.084.691.2a.75.75 0 0 1 .31.31c.117.22.172.468.2.692.03.233.038.492.03.766-.013.546-.09 1.209-.208 1.939-.238 1.463-.66 3.273-1.17 5.126-1.013 3.68-2.411 7.666-3.477 9.512-.334.578-.773 1.07-1.376 1.214-.649.154-1.192-.158-1.564-.509-.374-.352-.696-.848-.973-1.374a15.517 15.517 0 0 1-.78-1.791c-.474-1.273-.866-2.669-1.139-3.738a51.03 51.03 0 0 1-.328-1.362zM3.55 8.61s.001.004 0 .01v-.01z" fill="#000000" opacity="1" data-original="#000000"></path><path d="M21.516 2.415a.75.75 0 0 1 0 1.061l-9.492 9.492a.75.75 0 0 1-1.061-1.06l9.492-9.493a.75.75 0 0 1 1.06 0z" fill="#000000" opacity="1" data-original="#000000"></path></g></g></svg>