<svg xmlns="http://www.w3.org/2000/svg" version="1.1" xmlns:xlink="http://www.w3.org/1999/xlink" width="512" height="512" x="0" y="0" viewBox="0 0 24 24" style="enable-background:new 0 0 512 512" xml:space="preserve" class=""><g><g fill="#000" fill-rule="evenodd" clip-rule="evenodd"><path d="M8.75 12c0 1.792 1.458 3.25 3.25 3.25s3.25-1.458 3.25-3.25S13.792 8.75 12 8.75 8.75 10.208 8.75 12zm1.5 0c0-.965.785-1.75 1.75-1.75s1.75.785 1.75 1.75-.785 1.75-1.75 1.75-1.75-.785-1.75-1.75z" fill="#000000" opacity="1" data-original="#000000"></path><path d="M8.775 19.008c0 1.788 1.447 3.242 3.225 3.242s3.225-1.454 3.225-3.242c0-.423.28-.63.4-.7a.776.776 0 0 1 .787.003 3.19 3.19 0 0 0 2.445.326 3.207 3.207 0 0 0 1.962-1.514 3.256 3.256 0 0 0-1.18-4.425c-.36-.21-.398-.558-.398-.698s.039-.488.399-.697a3.258 3.258 0 0 0 1.179-4.426 3.208 3.208 0 0 0-4.406-1.187.774.774 0 0 1-.787.001.788.788 0 0 1-.401-.699c0-1.788-1.447-3.242-3.225-3.242S8.775 3.204 8.775 4.992c0 .423-.28.63-.401.699a.762.762 0 0 1-.785-.001 3.206 3.206 0 0 0-2.445-.327A3.208 3.208 0 0 0 3.18 6.877a3.258 3.258 0 0 0 1.179 4.426.79.79 0 0 1 .398.697.791.791 0 0 1-.398.697 3.259 3.259 0 0 0-1.18 4.426 3.21 3.21 0 0 0 4.41 1.187.773.773 0 0 1 .784-.002c.12.07.4.277.4.7zm.346-1.999a2.276 2.276 0 0 0-1.138-.308c-.395 0-.79.104-1.148.313-.398.23-.861.292-1.303.173a1.71 1.71 0 0 1-1.05-.81 1.751 1.751 0 0 1 .633-2.383c.716-.417 1.143-1.163 1.143-1.994s-.427-1.577-1.144-1.994a1.755 1.755 0 0 1-.632-2.383 1.717 1.717 0 0 1 2.354-.636c.715.416 1.57.417 2.286.005a2.282 2.282 0 0 0 1.153-2c0-.961.774-1.742 1.725-1.742s1.725.781 1.725 1.742c0 .836.43 1.583 1.152 1.999.717.413 1.572.41 2.289-.004a1.714 1.714 0 0 1 2.352.636 1.753 1.753 0 0 1-.633 2.383c-.716.417-1.143 1.163-1.143 1.994s.427 1.577 1.143 1.994c.827.48 1.11 1.55.633 2.383-.231.403-.604.691-1.05.81a1.7 1.7 0 0 1-1.302-.173 2.263 2.263 0 0 0-2.288-.005 2.28 2.28 0 0 0-1.153 1.999c0 .961-.774 1.742-1.725 1.742s-1.725-.781-1.725-1.742c0-.837-.431-1.584-1.154-1.999z" fill="#000000" opacity="1" data-original="#000000"></path></g></g></svg>