<svg xmlns="http://www.w3.org/2000/svg" version="1.1" xmlns:xlink="http://www.w3.org/1999/xlink" width="512" height="512" x="0" y="0" viewBox="0 0 24 24" style="enable-background:new 0 0 512 512" xml:space="preserve"><g><g fill="#000" fill-rule="evenodd" clip-rule="evenodd"><path d="M19.398 8.421c-.855.445-1.89 1.134-2.78 1.84a.75.75 0 0 1-.932-1.176c.948-.752 2.064-1.496 3.019-1.994.473-.246.94-.45 1.347-.555a2.14 2.14 0 0 1 .652-.077c.222.013.53.084.769.342.138.149.224.325.28.464.06.15.11.316.15.486.081.34.143.755.19 1.204.095.903.138 2.019.133 3.12a31.2 31.2 0 0 1-.152 3.104c-.048.443-.11.85-.187 1.18a3.461 3.461 0 0 1-.142.472 1.44 1.44 0 0 1-.273.458c-.248.267-.57.323-.78.329a2.182 2.182 0 0 1-.634-.09c-.398-.11-.86-.316-1.333-.563-.954-.5-2.077-1.24-3.035-1.986a.75.75 0 0 1 .923-1.183c.9.7 1.947 1.39 2.808 1.84.41.215.749.36.993.433l.013-.051c.058-.248.111-.587.156-1.002.09-.824.14-1.88.144-2.946a28.69 28.69 0 0 0-.125-2.958 8.35 8.35 0 0 0-.158-1.013 2.98 2.98 0 0 0-.028-.108c-.244.064-.592.208-1.018.43z" fill="#000000" opacity="1" data-original="#000000"></path><path d="M4.555 7.158c-.856.86-1.29 2.324-1.29 4.879 0 2.555.433 4.02 1.29 4.879.856.858 2.314 1.294 4.86 1.294 2.546 0 4.004-.436 4.86-1.294.856-.86 1.29-2.324 1.29-4.879 0-2.555-.434-4.02-1.29-4.88-.856-.858-2.314-1.293-4.86-1.293-2.546 0-4.004.435-4.86 1.294zm-1.062-1.06c1.3-1.304 3.292-1.734 5.922-1.734s4.622.43 5.922 1.735c1.3 1.304 1.728 3.3 1.728 5.938 0 2.637-.428 4.633-1.728 5.938-1.3 1.305-3.292 1.735-5.922 1.735s-4.622-.43-5.922-1.735c-1.3-1.305-1.729-3.301-1.729-5.938 0-2.637.429-4.634 1.729-5.938z" fill="#000000" opacity="1" data-original="#000000"></path></g></g></svg>